<?xml version="1.0" encoding="UTF-8" standalone="no"?>
<!DOCTYPE svg PUBLIC "-//W3C//DTD SVG 1.1//EN" "http://www.w3.org/Graphics/SVG/1.1/DTD/svg11.dtd">
<svg width="100%" height="100%" viewBox="0 0 1080 1080" version="1.1" xmlns="http://www.w3.org/2000/svg" xmlns:xlink="http://www.w3.org/1999/xlink" xml:space="preserve" xmlns:serif="http://www.serif.com/" style="fill-rule:evenodd;clip-rule:evenodd;stroke-linecap:round;stroke-linejoin:round;stroke-miterlimit:1.5;">
    <path d="M830,1080c0,-149.017 -290,-270 -290,-270c-0,0 -290,-120.983 -290,-270c0,-149.017 290,-270 290,-270c0,0 290,-120.983 290,-270" style="fill:none;stroke:#3c6e72;stroke-width:2px;"/>
    <path d="M810,1080c0,-149.017 -270,-270 -270,-270c-0,0 -270,-120.983 -270,-270c0,-149.017 270,-270 270,-270c0,0 270,-120.983 270,-270" style="fill:none;stroke:#3c6e72;stroke-width:2px;"/>
    <path d="M790,1080c0,-149.017 -250,-270 -250,-270c-0,0 -250,-120.983 -250,-270c0,-149.017 250,-270 250,-270c0,0 250,-120.983 250,-270" style="fill:none;stroke:#3c6e72;stroke-width:2px;"/>
</svg>
